<?xml version="1.0" encoding="UTF-8" standalone="no"?>
<svg
   viewBox="0 0 800 574"
   version="1.1"
   id="svg3989"
   sodipodi:docname="giflow-full-pytho.svg"
   inkscape:version="1.2 (dc2aeda, 2022-05-15)"
   xmlns:inkscape="http://www.inkscape.org/namespaces/inkscape"
   xmlns:sodipodi="http://sodipodi.sourceforge.net/DTD/sodipodi-0.dtd"
   xmlns="http://www.w3.org/2000/svg"
   xmlns:svg="http://www.w3.org/2000/svg"
   xmlns:rdf="http://www.w3.org/1999/02/22-rdf-syntax-ns#"
   xmlns:cc="http://creativecommons.org/ns#"
   xmlns:dc="http://purl.org/dc/elements/1.1/">
  <metadata
     id="metadata3995">
    <rdf:RDF>
      <cc:Work
         rdf:about="">
        <dc:format>image/svg+xml</dc:format>
        <dc:type
           rdf:resource="http://purl.org/dc/dcmitype/StillImage" />
        <dc:title />
      </cc:Work>
    </rdf:RDF>
  </metadata>
  <defs
     id="defs3993" />
  <sodipodi:namedview
     pagecolor="#ffffff"
     bordercolor="#666666"
     borderopacity="1"
     objecttolerance="10"
     gridtolerance="10"
     guidetolerance="10"
     inkscape:pageopacity="0"
     inkscape:pageshadow="2"
     inkscape:window-width="1440"
     inkscape:window-height="900"
     id="namedview3991"
     showgrid="false"
     inkscape:zoom="0.88841164"
     inkscape:cx="475.00503"
     inkscape:cy="298.28515"
     inkscape:window-x="0"
     inkscape:window-y="0"
     inkscape:window-maximized="0"
     inkscape:current-layer="svg3989"
     inkscape:showpageshadow="2"
     inkscape:pagecheckerboard="0"
     inkscape:deskcolor="#d1d1d1" />
  <style
     id="style3855">.st0{display:none;} .st1{display:inline;} .st2{fill:#FFFFFF;} .st3{fill:none;stroke:#9882CE;stroke-width:4;stroke-miterlimit:10;} .st4{fill:#FFFFFF;stroke:#404040;stroke-width:4;stroke-linecap:round;stroke-linejoin:round;stroke-miterlimit:10;} .st5{fill:#FFFFFF;stroke:#404040;stroke-width:4;stroke-miterlimit:10;} .st6{fill:#B3E3FF;stroke:#404040;stroke-width:4;stroke-miterlimit:10;} .st7{fill:#B18BE8;stroke:#404040;stroke-width:4;stroke-miterlimit:10;} .st8{fill:#FFFFFF;stroke:#404040;stroke-width:6;stroke-miterlimit:10;} .st9{fill:#B3E3FF;stroke:#404040;stroke-width:6;stroke-miterlimit:10;} .st10{fill:#404040;} .st11{fill:none;stroke:#404040;stroke-width:4;stroke-linecap:round;stroke-linejoin:round;stroke-miterlimit:10;} .st12{fill:#B18BE8;stroke:#404040;stroke-width:4;stroke-linecap:round;stroke-linejoin:round;stroke-miterlimit:10;} .st13{fill:#444444;} .st14{fill:none;stroke:#404040;stroke-width:4;stroke-miterlimit:10;} .st15{fill:#4ED1A1;stroke:#404040;stroke-width:4;stroke-miterlimit:10;} .st16{fill:none;stroke:#CCCCCC;stroke-width:7;stroke-linecap:round;stroke-linejoin:round;stroke-miterlimit:10;} .st17{fill:#FFFFFF;stroke:#CCCCCC;stroke-width:7;stroke-linecap:round;stroke-linejoin:round;stroke-miterlimit:10;} .st18{fill:none;stroke:#404040;stroke-width:7;stroke-miterlimit:10;} .st19{fill:#B3E3FF;stroke:#404040;stroke-width:7;stroke-miterlimit:10;} .st20{fill:none;stroke:#CCCCCC;stroke-width:8;stroke-linecap:round;stroke-miterlimit:10;} .st21{fill:none;stroke:#404040;stroke-width:8;stroke-linecap:round;stroke-miterlimit:10;} .st22{fill:#FFFFFF;stroke:#404040;stroke-width:4;stroke-linejoin:round;stroke-miterlimit:10;} .st23{fill:#B3E3FF;stroke:#404040;stroke-width:4;stroke-linejoin:round;stroke-miterlimit:10;} .st24{fill:none;stroke:#CCCCCC;stroke-linecap:round;stroke-linejoin:round;stroke-miterlimit:10;} .st25{fill:#999999;} .st26{fill:#4ED1A1;stroke:#404040;stroke-width:4;stroke-linecap:round;stroke-linejoin:round;stroke-miterlimit:10;} .st27{fill:#4CD3D6;stroke:#404040;stroke-width:4;stroke-linejoin:round;stroke-miterlimit:10;} .st28{fill:none;stroke:#59AFE1;stroke-width:4;stroke-miterlimit:10;} .st29{fill:#59AFE1;stroke:#404040;stroke-width:4;stroke-linejoin:round;stroke-miterlimit:10;} .st30{fill:none;stroke:#404040;stroke-width:8;stroke-linecap:round;stroke-linejoin:round;stroke-miterlimit:10;stroke-dasharray:0,30;} .st31{fill:#FFFFFF;stroke:#59AFE1;stroke-width:4;stroke-miterlimit:10;} .st32{fill:#FC8363;stroke:#404040;stroke-width:4;stroke-linecap:round;stroke-linejoin:round;stroke-miterlimit:10;} .st33{fill:#CCCCCC;stroke:#404040;stroke-width:4;stroke-miterlimit:10;} .st34{fill:#FFFFFF;stroke:#6693ED;stroke-width:4;stroke-miterlimit:10;} .st35{fill:none;stroke:#A97CDD;stroke-width:4;stroke-linecap:round;stroke-linejoin:round;stroke-miterlimit:10;} .st36{fill:none;stroke:#B3E3FF;stroke-width:4;stroke-linecap:round;stroke-linejoin:round;stroke-miterlimit:10;} .st37{fill:none;stroke:#4ED1A1;stroke-width:4;stroke-linecap:round;stroke-miterlimit:10;} .st38{fill:none;stroke:#4ED1A1;stroke-width:4;stroke-linecap:round;stroke-linejoin:round;stroke-miterlimit:10;} .st39{fill:#E24B88;stroke:#404040;stroke-width:4;stroke-linecap:round;stroke-linejoin:round;stroke-miterlimit:10;} .st40{fill:none;stroke:#DEEFF8;stroke-width:4;stroke-miterlimit:10;} .st41{fill:none;stroke:#CCCCCC;stroke-width:4;stroke-linecap:round;stroke-linejoin:round;} .st42{fill:none;stroke:#CCCCCC;stroke-width:4;stroke-linecap:round;stroke-linejoin:round;stroke-dasharray:0,14.3051;} .st43{fill:none;stroke:#CCCCCC;stroke-width:4;stroke-linecap:round;stroke-linejoin:round;stroke-dasharray:0,14.1689;} .st44{fill:none;stroke:#CCCCCC;stroke-width:4;stroke-linecap:round;stroke-linejoin:round;stroke-dasharray:0,13.9788;} .st45{fill:none;stroke:#CCCCCC;stroke-width:4;stroke-linecap:round;stroke-linejoin:round;stroke-dasharray:0,14.7877;} .st46{fill:none;stroke:#CCCCCC;stroke-width:4;stroke-linecap:round;stroke-linejoin:round;stroke-dasharray:0,14.9632;} .st47{fill:#B3E3FF;stroke:#404040;stroke-width:4;stroke-linecap:round;stroke-linejoin:round;stroke-miterlimit:10;} .st48{fill:none;stroke:#CCCCCC;stroke-width:4;stroke-linecap:round;stroke-linejoin:round;stroke-dasharray:0,12.543;} .st49{fill:none;stroke:#CCCCCC;stroke-width:4;stroke-linecap:round;stroke-linejoin:round;stroke-dasharray:0,13.6844;} .st50{fill:none;stroke:#CCCCCC;stroke-width:4;stroke-linecap:round;stroke-linejoin:round;stroke-dasharray:0,13.7717;} .st51{fill:none;stroke:#CCCCCC;stroke-width:4;stroke-linecap:round;stroke-linejoin:round;stroke-dasharray:0,13.6492;} .st52{fill:none;stroke:#CCCCCC;stroke-width:4;stroke-linecap:round;stroke-linejoin:round;stroke-dasharray:0,13.907;} .st53{fill:#4CD3D6;stroke:#404040;stroke-width:4;stroke-linecap:round;stroke-linejoin:round;stroke-miterlimit:10;} .st54{fill:none;stroke:#CCCCCC;stroke-width:4;stroke-linecap:round;stroke-linejoin:round;stroke-dasharray:0,14.9858;} .st55{fill:none;stroke:#CCCCCC;stroke-width:4;stroke-linecap:round;stroke-linejoin:round;stroke-dasharray:0,14.0118;} .st56{fill:none;stroke:#CCCCCC;stroke-width:4;stroke-linecap:round;stroke-linejoin:round;stroke-dasharray:0,14.1243;} .st57{fill:none;} .st58{fill:#FFFFFF;stroke:#404040;stroke-width:7;stroke-linecap:round;stroke-linejoin:round;stroke-miterlimit:10;} .st59{fill:#59AFE1;stroke:#404040;stroke-width:7;stroke-linejoin:round;stroke-miterlimit:10;} .st60{fill:#E24B88;stroke:#404040;stroke-width:7;stroke-linecap:round;stroke-linejoin:round;stroke-miterlimit:10;} .st61{fill:none;stroke:#404040;stroke-width:7;stroke-linecap:round;stroke-linejoin:round;stroke-miterlimit:10;} .st62{fill:none;stroke:#CCCCCC;stroke-width:4;stroke-linecap:round;stroke-linejoin:round;stroke-miterlimit:10;} .st63{fill:#FFFFFF;stroke:#CCCCCC;stroke-width:4;stroke-linecap:round;stroke-linejoin:round;stroke-miterlimit:10;} .st64{fill:#F5F5F5;} .st65{fill:#3873AE;} .st66{fill:#75706C;} .st67{fill:none;stroke:#B3E3FF;stroke-width:4;stroke-miterlimit:10;} .st68{fill:#6F6F6F;} .st69{fill:none;stroke:#6F6F6F;stroke-width:2;stroke-miterlimit:10;} .st70{fill:none;stroke:#6F6F6F;stroke-width:3;stroke-miterlimit:10;}</style>
  <path
     class="st14"
     d="M424.4 459.9c0-17 13.8-30.8 30.8-30.8"
     id="path3857" />
  <path
     class="st14"
     d="M254.1 459.9c0-17-13.8-30.8-30.8-30.8m-58.8 123h213.9"
     id="path3859" />
  <circle
     class="st15"
     cx="315.8"
     cy="552.1"
     r="15.8"
     id="circle3861" />
  <circle
     class="st15"
     cx="362.7"
     cy="552.1"
     r="15.8"
     id="circle3863" />
  <circle
     class="st15"
     cx="242.5"
     cy="552.1"
     r="15.8"
     id="circle3865" />
  <path
     class="st14"
     d="M776.2 429.1h-596.3"
     id="path3867" />
  <circle
     class="st7"
     cx="485.2"
     cy="429.1"
     r="15.8"
     id="circle3869" />
  <circle
     class="st7"
     cx="315.8"
     cy="429.1"
     r="15.8"
     id="circle3871" />
  <circle
     class="st7"
     cx="776.2"
     cy="429.1"
     r="15.8"
     id="circle3873" />
  <path
     class="st14"
     d="M254.1 459.9c0 17 13.8 30.8 30.8 30.8h107.9m-307.9-215.7c0 17 13.8 30.8 30.8 30.8h17.3"
     id="path3875" />
  <circle
     class="st15"
     cx="315.8"
     cy="490.6"
     r="15.8"
     id="circle3877" />
  <circle
     class="st15"
     cx="362.7"
     cy="490.6"
     r="15.8"
     id="circle3879" />
  <path
     class="st14"
     d="M392.8 490.6h.9c17 0 30.8-13.8 30.8-30.8"
     id="path3881" />
  <path
     class="st42"
     d="M57.2 306.1h-35.7"
     id="path3883" />
  <path
     class="st41"
     d="M14.3 306.1m762 0"
     id="path3885" />
  <path
     class="st43"
     d="M762.1 306.1h-517.2"
     id="path3887" />
  <path
     class="st41"
     d="M237.8 306.1m307.7 61.5"
     id="path3889" />
  <path
     class="st44"
     d="M531.5 367.6h-510.2"
     id="path3891" />
  <path
     class="st41"
     d="M14.3 367.6m762 0"
     id="path3893" />
  <path
     class="st45"
     d="M761.5 367.6h-51.8"
     id="path3895" />
  <path
     class="st41"
     d="M702.3 367.6m73.9-123"
     id="path3897" />
  <path
     class="st46"
     d="M761.3 244.6h-82.3"
     id="path3899" />
  <path
     class="st14"
     d="M84.9 275.4c0-17-13.8-30.8-30.8-30.8m157.6 30.4c0 17-13.8 30.8-30.8 30.8h-48m78.8-30.4c0-17 13.8-30.8 30.8-30.8m30.7 184.5c-17 0-30.8-13.8-30.8-30.8v-61.8m0 0c0-17-13.8-30.8-30.8-30.8m-126.7-30.3"
     id="path3901" />
  <circle
     class="st15"
     cx="148.7"
     cy="552.1"
     r="15.8"
     id="circle3903" />
  <path
     class="st14"
     d="M645 244.6h-605.8"
     id="path3905" />
  <circle
     class="st6"
     cx="23.5"
     cy="244.6"
     r="15.8"
     id="circle3907" />
  <circle
     class="st6"
     cx="315.8"
     cy="244.6"
     r="15.8"
     id="circle3909" />
  <circle
     class="st6"
     cx="645"
     cy="244.6"
     r="15.8"
     id="circle3911" />
  <path
     class="st47"
     d="m 11.008622,138.80838 h 67.642217 v 36.52006 H 73.91137 11.008622 Z"
     id="path3913"
     inkscape:connector-curvature="0"
     style="fill:#b3e3ff;stroke:#404040;stroke-width:4.97994471;stroke-linecap:round;stroke-linejoin:round;stroke-miterlimit:10"
     sodipodi:nodetypes="cccccc" />
  <path
     class="st11"
     d="m 22.962102,221.54316 v -17.6 m 8.2,11.1 -8.2,8.2 -8.1,-8.2"
     id="path3917"
     inkscape:connector-curvature="0"
     style="fill:none;stroke:#404040;stroke-width:4;stroke-linecap:round;stroke-linejoin:round;stroke-miterlimit:10" />
  <path
     class="st11"
     d="m 315.30713,221.54316 v -17.6 m 8.2,11.1 -8.2,8.2 -8.1,-8.2"
     id="path3923"
     inkscape:connector-curvature="0"
     style="fill:none;stroke:#404040;stroke-width:4;stroke-linecap:round;stroke-linejoin:round;stroke-miterlimit:10" />
  <path
     class="st11"
     d="m 644.26069,221.54316 v -17.6 m 8.2,11.1 -8.2,8.2 -8.1,-8.2"
     id="path3929"
     inkscape:connector-curvature="0"
     style="fill:none;stroke:#404040;stroke-width:4;stroke-linecap:round;stroke-linejoin:round;stroke-miterlimit:10" />
  <path
     class="st48"
     d="M64.5 429.1h-43.9"
     id="path3931" />
  <path
     class="st41"
     d="M14.3 429.1m246.3 61.5"
     id="path3933" />
  <path
     class="st49"
     d="M246.9 490.6h-225.7"
     id="path3935" />
  <path
     class="st41"
     d="M14.3 490.6m762 0"
     id="path3937" />
  <path
     class="st50"
     d="M762.5 490.6h-337.4"
     id="path3939" />
  <path
     class="st41"
     d="M418.2 490.6m-294.7 61.5"
     id="path3941" />
  <path
     class="st51"
     d="M109.9 552.1h-88.8"
     id="path3943" />
  <path
     class="st41"
     d="M14.3 552.1m762 0"
     id="path3945" />
  <path
     class="st52"
     d="M762.3 552.1h-368.5"
     id="path3947" />
  <path
     class="st53"
     d="M283.5 5.2h96.2v50h-96.2z"
     id="path3949" />
  <path
     class="st10"
     d="M308.8 31.8h-1.6v4.3h-1.5v-10.5h4c2 0 3.3 1.4 3.3 3.2 0 1.5-1 2.7-2.6 3l2.5 4.5h-1.7l-2.4-4.5zm.7-1.3c1.2 0 2-.7 2-1.8s-.8-1.8-2-1.8h-2.2v3.6h2.2zm12.1 3.6c-.4 1.3-1.6 2.3-3.2 2.3-1.9 0-3.6-1.4-3.6-3.9 0-2.3 1.6-3.8 3.5-3.8 2.2 0 3.5 1.5 3.5 3.8v.5h-5.4c0 1.3 1 2.2 2.2 2.2 1.2 0 1.8-.6 2-1.5l1 .4zm-1.4-2.3c0-1-.7-1.8-2-1.8-1.2 0-1.9.9-2 1.8h4zm4 4.4v-10.9h1.4v10.9h-1.4zm10.9-2.1c-.4 1.3-1.6 2.3-3.2 2.3-1.9 0-3.6-1.4-3.6-3.9 0-2.3 1.6-3.8 3.5-3.8 2.2 0 3.5 1.5 3.5 3.8v.5h-5.4c0 1.3 1 2.2 2.2 2.2 1.2 0 1.8-.6 2-1.5l1 .4zm-1.4-2.3c0-1-.7-1.8-2-1.8-1.2 0-1.9.9-2 1.8h4zm5.7.3l2-.3c.4-.1.6-.3.6-.5 0-.7-.5-1.3-1.6-1.3-1 0-1.5.6-1.6 1.5l-1.4-.3c.2-1.4 1.4-2.3 3-2.3 2.2 0 3 1.2 3 2.6v3.5c0 .6.1 1 .1 1.2h-1.5c0-.2-.1-.5-.1-1-.3.5-1 1.2-2.3 1.2-1.5 0-2.4-1-2.4-2.2 0-1.2 1-2 2.2-2.1zm2.5 1v-.3l-2.2.3c-.6.1-1 .4-1 1.1 0 .5.5 1 1.2 1 1.1 0 2-.5 2-2.1zm5 .8c.1.8.7 1.3 1.7 1.3.8 0 1.2-.5 1.2-1 0-.4-.3-.8-.9-.9l-1.2-.3c-1.1-.2-1.8-1-1.8-2 0-1.2 1.2-2.3 2.6-2.3 2 0 2.6 1.3 2.7 1.9l-1.2.5c-.1-.4-.4-1.2-1.5-1.2-.7 0-1.2.5-1.2 1 0 .4.3.8.8.9l1.2.3c1.3.3 2 1.1 2 2.1s-.9 2.2-2.6 2.2c-2 0-2.8-1.3-2.9-2.1l1.1-.4zm13.1.2c-.4 1.3-1.6 2.3-3.2 2.3-1.9 0-3.6-1.4-3.6-3.9 0-2.3 1.6-3.8 3.5-3.8 2.2 0 3.5 1.5 3.5 3.8v.5h-5.4c0 1.3 1 2.2 2.2 2.2 1.2 0 1.8-.6 2-1.5l1 .4zm-1.4-2.3c0-1-.7-1.8-2-1.8-1.2 0-1.9.9-2 1.8h4z"
     id="path3951" />
  <path
     class="st12"
     d="M421.3 5.2h96.2v50h-96.2z"
     id="path3953" />
  <path
     class="st10"
     d="M441.7 36.2v-10.6h3.7c2.7 0 5.1 1.8 5.1 5.3s-2.4 5.3-5.1 5.3h-3.7zm3.6-1.3c2 0 3.6-1.3 3.6-4s-1.6-4-3.6-4h-2.2v8h2.2zm14-.8c-.4 1.3-1.6 2.3-3.2 2.3-1.9 0-3.6-1.4-3.6-3.9 0-2.3 1.6-3.8 3.4-3.8 2.2 0 3.5 1.5 3.5 3.8v.5h-5.4c0 1.3 1 2.2 2.2 2.2 1.2 0 1.8-.6 2-1.5l1.1.4zm-1.4-2.3c0-1-.7-1.8-2-1.8-1.2 0-1.9.9-2 1.8h4zm7.5 4.4h-1.4l-3-7.2h1.6l2.1 5.6 2.1-5.6h1.5l-2.9 7.2zm10.7-2.1c-.4 1.3-1.6 2.3-3.2 2.3-1.9 0-3.6-1.4-3.6-3.9 0-2.3 1.6-3.8 3.5-3.8 2.2 0 3.5 1.5 3.5 3.8v.5h-5.4c0 1.3 1 2.2 2.2 2.2 1.2 0 1.8-.6 2-1.5l1 .4zm-1.4-2.3c0-1-.7-1.8-2-1.8-1.2 0-1.9.9-2 1.8h4zm4 4.4v-10.9h1.4v10.9h-1.4zm11.4-3.6c0 2.2-1.5 3.8-3.7 3.8s-3.7-1.6-3.7-3.8c0-2.2 1.5-3.8 3.7-3.8 2.1-.1 3.7 1.6 3.7 3.8zm-1.5 0c0-1.7-1-2.6-2.2-2.6-1.2 0-2.2.9-2.2 2.6 0 1.7 1 2.6 2.2 2.6 1.2 0 2.2-1 2.2-2.6zm4 6.4v-10h1.4v1.1c.4-.7 1.2-1.3 2.4-1.3 2.2 0 3.3 1.7 3.3 3.8 0 2.1-1.2 3.8-3.4 3.8-1.1 0-2-.5-2.3-1.2v3.8h-1.4zm3.5-8.9c-1.3 0-2.1 1.1-2.1 2.5 0 1.5.9 2.6 2.1 2.6 1.3 0 2.1-1.1 2.1-2.6.1-1.5-.7-2.5-2.1-2.5z"
     id="path3955" />
  <path
     class="st32"
     d="M145.8 5.2h96.2v50h-96.2z"
     id="path3957" />
  <path
     class="st10"
     d="M180.9 36.2v-4.7h-5.4v4.7h-1.5v-10.6h1.5v4.5h5.4v-4.5h1.5v10.6h-1.5zm11.5-3.6c0 2.2-1.5 3.8-3.7 3.8s-3.7-1.6-3.7-3.8c0-2.2 1.5-3.8 3.7-3.8 2.2-.1 3.7 1.6 3.7 3.8zm-1.4 0c0-1.7-1-2.6-2.2-2.6s-2.2.9-2.2 2.6c0 1.7 1 2.6 2.2 2.6s2.2-1 2.2-2.6zm5.8-3.6h1.6v1.3h-1.6v3.7c0 .7.3 1 1 1 .2 0 .4 0 .6-.1v1.2c-.1 0-.5.1-1 .1-1.2 0-2-.8-2-2.1v-4h-1.4v-1.1h.4c.8 0 1.1-.5 1.1-1.1v-1.2h1.3v2.3zm7.8-3.6v1.3c-.1 0-.3-.1-.6-.1-.5 0-1.1.2-1.1 1.2v1.2h4.8v7.2h-1.4v-5.9h-3.4v5.9h-1.5v-5.9h-1.3v-1.3h1.3v-1.2c0-1.6 1.1-2.5 2.4-2.5.4 0 .7.1.8.1zm2.3-.2c.6 0 1 .4 1 1s-.5 1-1 1c-.6 0-1-.5-1-1 0-.6.5-1 1-1zm5.5 7.3l-2.6-3.5h1.7l1.8 2.5 1.7-2.5h1.7l-2.6 3.5c.4.6 2.2 3.1 2.7 3.7h-1.7l-1.9-2.7-1.8 2.7h-1.7l2.7-3.7z"
     id="path3959" />
  <path
     class="st47"
     d="M8 5.2h96.2v50h-96.2z"
     id="path3961" />
  <path
     class="st10"
     d="M42.7 36.2v-8.3l-3.6 8.3h-1.3l-3.6-8.3v8.3h-1.5v-10.6h2l3.8 8.7 3.8-8.7h2v10.6h-1.6zm6.4-4.1l1.9-.3c.4-.1.6-.3.6-.5 0-.7-.5-1.3-1.6-1.3-1 0-1.5.6-1.6 1.5l-1.3-.3c.1-1.4 1.4-2.3 3-2.3 2.2 0 3 1.2 3 2.6v3.5c0 .6.1 1 .1 1.2h-1.4c0-.2-.1-.5-.1-1-.3.5-1 1.2-2.3 1.2-1.5 0-2.4-1-2.4-2.2-.1-1.2.9-2 2.1-2.1zm2.5 1v-.3l-2.2.3c-.6.1-1 .4-1 1.1 0 .5.4 1 1.2 1 1.1 0 2-.5 2-2.1zm5 .8c.1.8.7 1.3 1.7 1.3.8 0 1.2-.5 1.2-1 0-.4-.3-.8-.9-.9l-1.2-.3c-1.1-.2-1.8-1-1.8-2 0-1.2 1.2-2.3 2.6-2.3 2 0 2.6 1.3 2.7 1.9l-1.2.5c-.1-.4-.4-1.2-1.5-1.2-.7 0-1.2.5-1.2 1 0 .4.3.8.8.9l1.2.3c1.3.3 2 1.1 2 2.1s-.9 2.2-2.6 2.2c-2 0-2.8-1.3-2.9-2.1l1.1-.4zm8.8-4.9h1.6v1.3h-1.6v3.7c0 .7.3 1 1 1 .2 0 .4 0 .6-.1v1.2c-.1 0-.5.1-1 .1-1.2 0-2-.8-2-2.1v-4h-1.4v-1.1h.4c.8 0 1.1-.5 1.1-1.1v-1.2h1.3v2.3zm10.4 5.1c-.4 1.3-1.6 2.3-3.2 2.3-1.9 0-3.6-1.4-3.6-3.9 0-2.3 1.6-3.8 3.5-3.8 2.2 0 3.5 1.5 3.5 3.8v.4h-5.4c0 1.3 1 2.2 2.2 2.2 1.2 0 1.8-.6 2-1.5l1 .5zm-1.4-2.3c0-1-.7-1.8-2-1.8-1.2 0-1.9.9-2 1.8h4zm8-1.4h-.6c-1.2 0-2 .6-2 2.2v3.6h-1.4v-7.2h1.4v1.3c.5-1.1 1.4-1.4 2.2-1.4h.5v1.5z"
     id="path3963" />
  <path
     class="st26"
     d="M559.1 5.2h96.2v50h-96.2z"
     id="path3965" />
  <path
     class="st10"
     d="M581.6 35.7v-10.6h6.5v1.4h-5v3.4h4.5v1.4h-4.5v4.5h-1.5zm14.7-2.1c-.4 1.3-1.6 2.3-3.2 2.3-1.9 0-3.6-1.4-3.6-3.9 0-2.3 1.6-3.8 3.5-3.8 2.2 0 3.5 1.5 3.5 3.8v.5h-5.4c0 1.3 1 2.2 2.2 2.2 1.2 0 1.8-.6 2-1.5l1 .4zm-1.5-2.3c0-1-.7-1.8-2-1.8-1.2 0-1.9.9-2 1.8h4zm5.8.3l2-.3c.4-.1.6-.3.6-.5 0-.7-.5-1.3-1.6-1.3-1 0-1.5.6-1.6 1.5l-1.3-.3c.2-1.4 1.4-2.3 3-2.3 2.2 0 3 1.2 3 2.6v3.6c0 .6.1 1 .1 1.2h-1.4c0-.2-.1-.5-.1-1-.3.5-1 1.2-2.3 1.2-1.5 0-2.4-1-2.4-2.2-.2-1.3.7-2.1 2-2.2zm2.5 1v-.3l-2.2.3c-.6.1-1 .4-1 1.1 0 .5.5 1 1.2 1 1.1 0 2-.5 2-2.1zm6.2-4.1h1.6v1.3h-1.6v3.8c0 .7.3 1 1 1 .2 0 .4 0 .6-.1v1.2c-.1 0-.5.1-1 .1-1.2 0-2-.8-2-2.1v-4h-1.4v-1.3h.4c.8 0 1.1-.5 1.1-1.1v-1.2h1.3v2.4zm6.8 7.4c-1.7 0-2.7-1.3-2.7-2.9v-4.5h1.4v4.3c0 1 .5 1.9 1.6 1.9s1.7-.8 1.7-1.8v-4.3h1.4v5.9c0 .6 0 1.1.1 1.3h-1.3c0-.2-.1-.6-.1-.9-.3.7-1.2 1-2.1 1zm10.7-6h-.6c-1.2 0-2 .6-2 2.2v3.6h-1.4v-7.2h1.4v1.3c.5-1.1 1.4-1.4 2.2-1.4h.5v1.5zm8.4 3.7c-.4 1.3-1.6 2.3-3.2 2.3-1.9 0-3.6-1.4-3.6-3.9 0-2.3 1.6-3.8 3.5-3.8 2.2 0 3.5 1.5 3.5 3.8v.5h-5.4c0 1.3 1 2.2 2.2 2.2 1.2 0 1.8-.6 2-1.5l1 .4zm-1.4-2.3c0-1-.7-1.8-2-1.8-1.2 0-1.9.9-2 1.8h4z"
     id="path3967" />
  <path
     class="st26"
     d="M696.8 5.2h96.2v50h-96.2z"
     id="path3969" />
  <path
     class="st10"
     d="M719.4 35.7v-10.6h6.5v1.4h-5v3.4h4.5v1.4h-4.5v4.5h-1.5zm14.6-2.1c-.4 1.3-1.6 2.3-3.2 2.3-1.9 0-3.6-1.4-3.6-3.9 0-2.3 1.6-3.8 3.4-3.8 2.2 0 3.5 1.5 3.5 3.8v.5h-5.4c0 1.3 1 2.2 2.2 2.2 1.2 0 1.8-.6 2-1.5l1.1.4zm-1.4-2.3c0-1-.7-1.8-2-1.8-1.2 0-1.9.9-2 1.8h4zm5.8.3l1.9-.3c.4-.1.6-.3.6-.5 0-.7-.5-1.3-1.6-1.3-1 0-1.5.6-1.6 1.5l-1.4-.3c.2-1.4 1.4-2.3 3-2.3 2.2 0 3 1.2 3 2.6v3.6c0 .6.1 1 .1 1.2h-1.4c0-.2-.1-.5-.1-1-.3.5-1 1.2-2.3 1.2-1.5 0-2.4-1-2.4-2.2 0-1.3.9-2.1 2.2-2.2zm2.5 1v-.3l-2.2.3c-.6.1-1 .4-1 1.1 0 .5.4 1 1.2 1 1 0 2-.5 2-2.1zm6.2-4.1h1.6v1.3h-1.6v3.8c0 .7.3 1 1 1 .2 0 .4 0 .6-.1v1.2c-.1 0-.5.1-1 .1-1.2 0-2-.8-2-2.1v-4h-1.4v-1.3h.4c.8 0 1.1-.5 1.1-1.1v-1.2h1.3v2.4zm6.8 7.4c-1.7 0-2.7-1.3-2.7-2.9v-4.5h1.4v4.3c0 1 .5 1.9 1.6 1.9s1.7-.8 1.7-1.8v-4.3h1.4v5.9c0 .6 0 1.1.1 1.3h-1.3c0-.2-.1-.6-.1-.9-.3.7-1.2 1-2.1 1zm10.6-6h-.6c-1.2 0-2 .6-2 2.2v3.6h-1.4v-7.2h1.4v1.3c.5-1.1 1.4-1.4 2.2-1.4h.5v1.5zm8.5 3.7c-.4 1.3-1.6 2.3-3.2 2.3-1.9 0-3.6-1.4-3.6-3.9 0-2.3 1.6-3.8 3.5-3.8 2.2 0 3.5 1.5 3.5 3.8v.5h-5.4c0 1.3 1 2.2 2.2 2.2 1.2 0 1.8-.6 2-1.5l1 .4zm-1.4-2.3c0-1-.7-1.8-2-1.8-1.2 0-1.9.9-2 1.8h4z"
     id="path3971" />
  <path
     class="st14"
     d="M84.9 275v123.4c0 17 13.8 30.8 30.8 30.8h95.7"
     id="path3973" />
  <circle
     class="st7"
     cx="195.6"
     cy="429.1"
     r="15.7"
     id="circle3975" />
  <circle
     class="st7"
     cx="148.7"
     cy="429.1"
     r="15.8"
     id="circle3977" />
  <circle
     class="st32"
     cx="148.7"
     cy="306.1"
     r="15.8"
     id="circle3979" />
  <path
     class="st14"
     d="M536.5 398.4c0 17-13.8 30.8-30.8 30.8m201-30.8c0 17 13.8 30.8 30.8 30.8h23m-192.4-61.6h-.9c-17 0-30.8 13.8-30.8 30.8m170.3 0c0-17-13.8-30.8-30.8-30.8h-107.8"
     id="path3981" />
  <circle
     class="st27"
     cx="645"
     cy="367.6"
     r="15.8"
     id="circle3983" />
  <circle
     class="st27"
     cx="598.2"
     cy="367.6"
     r="15.8"
     id="circle3985" />
  <path
     class="st14"
     d="M148.7 444.9v91.5m15.8-230.7h47.2m433.3 46.2v-91.5"
     id="path3987" />
  <text
     xml:space="preserve"
     style="font-style:normal;font-weight:normal;font-size:16px;line-height:1.25;font-family:sans-serif;letter-spacing:0px;word-spacing:0px;fill:#000000;fill-opacity:1;stroke:none"
     x="23.990051"
     y="161.91754"
     id="text3999"><tspan
       sodipodi:role="line"
       id="tspan3997"
       x="23.990051"
       y="161.91754">1.2.0</tspan></text>
  <path
     class="st47"
     d="m 282.97175,138.77109 h 67.64222 v 36.52006 h -4.73947 -62.90275 z"
     id="path3913-8"
     inkscape:connector-curvature="0"
     style="fill:#b3e3ff;stroke:#404040;stroke-width:4.97994471;stroke-linecap:round;stroke-linejoin:round;stroke-miterlimit:10"
     sodipodi:nodetypes="cccccc" />
  <text
     xml:space="preserve"
     style="font-style:normal;font-weight:normal;font-size:16px;line-height:1.25;font-family:sans-serif;letter-spacing:0px;word-spacing:0px;fill:#000000;fill-opacity:1;stroke:none"
     x="295.95319"
     y="161.88023"
     id="text3999-7"><tspan
       sodipodi:role="line"
       id="tspan3997-3"
       x="295.95319"
       y="161.88023">1.2.1</tspan></text>
  <path
     class="st47"
     d="m 611.96316,140.13009 h 67.64222 v 36.52006 h -4.73947 -62.90275 z"
     id="path3913-8-5"
     inkscape:connector-curvature="0"
     style="fill:#b3e3ff;stroke:#404040;stroke-width:4.97994471;stroke-linecap:round;stroke-linejoin:round;stroke-miterlimit:10"
     sodipodi:nodetypes="cccccc" />
  <text
     xml:space="preserve"
     style="font-style:normal;font-weight:normal;font-size:16px;line-height:1.25;font-family:sans-serif;letter-spacing:0px;word-spacing:0px;fill:#000000;fill-opacity:1;stroke:none"
     x="624.94458"
     y="162.19371"
     id="text3999-7-8"><tspan
       sodipodi:role="line"
       id="tspan3997-3-2"
       x="624.94458"
       y="162.19371">1.3.0</tspan></text>
  <text
     xml:space="preserve"
     style="font-style:normal;font-weight:normal;font-size:16px;line-height:1.25;font-family:sans-serif;letter-spacing:0px;word-spacing:0px;fill:#000000;fill-opacity:1;stroke:none"
     x="117.86275"
     y="281.89069"
     id="text3999-7-7"><tspan
       sodipodi:role="line"
       id="tspan3997-3-4"
       x="117.86275"
       y="281.89069">1.2.1rc1</tspan></text>
  <text
     xml:space="preserve"
     style="font-style:normal;font-weight:normal;font-size:16px;line-height:1.25;font-family:sans-serif;letter-spacing:0px;word-spacing:0px;fill:#000000;fill-opacity:1;stroke:none"
     x="547.58002"
     y="342.276"
     id="text3999-7-7-8"><tspan
       sodipodi:role="line"
       id="tspan3997-3-4-0"
       x="547.58002"
       y="342.276">1.3.0rc1</tspan></text>
  <text
     xml:space="preserve"
     style="font-style:normal;font-weight:normal;font-size:16px;line-height:1.25;font-family:sans-serif;letter-spacing:0px;word-spacing:0px;fill:#000000;fill-opacity:1;stroke:none"
     x="657.24384"
     y="342.00613"
     id="text3999-7-7-8-3"><tspan
       sodipodi:role="line"
       id="tspan3997-3-4-0-2"
       x="657.24384"
       y="342.00613">1.3.0rc2</tspan></text>
  <text
     xml:space="preserve"
     style="font-style:normal;font-weight:normal;font-size:16px;line-height:1.25;font-family:sans-serif;letter-spacing:0px;word-spacing:0px;fill:#000000;fill-opacity:1;stroke:none"
     x="113.11417"
     y="407.06512"
     id="text3999-7-7-8-9"><tspan
       sodipodi:role="line"
       x="113.11417"
       y="407.06512"
       id="tspan4938">1.3.0a1</tspan></text>
  <text
     xml:space="preserve"
     style="font-style:normal;font-weight:normal;font-size:16px;line-height:1.25;font-family:sans-serif;letter-spacing:0px;word-spacing:0px;fill:#000000;fill-opacity:1;stroke:none"
     x="172.18689"
     y="465.61096"
     id="text3999-7-7-8-9-3"><tspan
       sodipodi:role="line"
       x="172.18689"
       y="465.61096"
       id="tspan4938-8">1.3.0a3</tspan></text>
  <text
     xml:space="preserve"
     style="font-style:normal;font-weight:normal;font-size:16px;line-height:1.25;font-family:sans-serif;letter-spacing:0px;word-spacing:0px;fill:#000000;fill-opacity:1;stroke:none"
     x="279.87921"
     y="407.20578"
     id="text3999-7-7-8-9-9"><tspan
       sodipodi:role="line"
       x="279.87921"
       y="407.20578"
       id="tspan4938-2">1.3.0a3</tspan></text>
  <text
     xml:space="preserve"
     style="font-style:normal;font-weight:normal;font-size:16px;line-height:1.25;font-family:sans-serif;letter-spacing:0px;word-spacing:0px;fill:#000000;fill-opacity:1;stroke:none"
     x="446.38403"
     y="407.69861"
     id="text3999-7-7-8-9-9-5"><tspan
       sodipodi:role="line"
       x="446.38403"
       y="407.69861"
       id="tspan4938-2-5">1.3.0a4</tspan></text>
  <text
     xml:space="preserve"
     style="font-style:normal;font-weight:normal;font-size:16px;line-height:1.25;font-family:sans-serif;letter-spacing:0px;word-spacing:0px;fill:#000000;fill-opacity:1;stroke:none"
     x="725.92395"
     y="408.19144"
     id="text3999-7-7-8-9-9-5-8"><tspan
       sodipodi:role="line"
       x="725.92395"
       y="408.19144"
       id="tspan4938-2-5-2">1.4.0a1</tspan></text>
  <text
     xml:space="preserve"
     style="font-style:normal;font-weight:normal;font-size:16px;line-height:1.25;font-family:sans-serif;letter-spacing:0px;word-spacing:0px;fill:#000000;fill-opacity:1;stroke:none"
     x="154.99455"
     y="530.08209"
     id="text3999-7-7-8-9-4"><tspan
       sodipodi:role="line"
       x="154.99455"
       y="530.08209"
       id="tspan4938-1">1.3.0a1+f2</tspan></text>
  <text
     xml:space="preserve"
     style="font-style:normal;font-weight:normal;font-size:16px;line-height:1.25;font-family:sans-serif;letter-spacing:0px;word-spacing:0px;fill:#000000;fill-opacity:1;stroke:none"
     x="303.11365"
     y="470.49167"
     id="text3999-7-7-8-9-3-2"><tspan
       sodipodi:role="line"
       x="303.11365"
       y="470.49167"
       id="tspan4938-8-3">1.3.0a1+f1</tspan></text>
  <rect
     style="fill:#1467b4;fill-opacity:0.198182;stroke:#515151;stroke-width:1.77872;stroke-linejoin:round;stroke-miterlimit:4;stroke-dasharray:3.55743, 3.55743;stroke-dashoffset:0;stroke-opacity:1"
     id="rect5040"
     width="794.31903"
     height="72.779823"
     x="1.8029053"
     y="121.91805" />
  <rect
     style="fill:#b47414;fill-opacity:0.19818181;stroke:#515151;stroke-width:2.32883406;stroke-linejoin:round;stroke-miterlimit:4;stroke-dasharray:4.65766787, 4.65766787;stroke-dashoffset:0;stroke-opacity:1"
     id="rect5040-1"
     width="791.4566"
     height="125.21104"
     x="3.3758526"
     y="265.45181" />
  <rect
     style="fill:#8114b4;fill-opacity:0.14;stroke:#515151;stroke-width:1.33228338;stroke-linejoin:round;stroke-miterlimit:4;stroke-dasharray:2.6645667, 2.66456669999999995;stroke-dashoffset:0;stroke-opacity:1"
     id="rect5040-1-9"
     width="792.20673"
     height="40.939957"
     x="4.109261"
     y="410.10455" />
  <text
     xml:space="preserve"
     style="font-style:normal;font-variant:normal;font-weight:normal;font-stretch:normal;font-size:16px;line-height:1.25;font-family:Stencil;-inkscape-font-specification:Stencil;letter-spacing:0px;word-spacing:0px;fill:#000000;fill-opacity:1;stroke:none"
     x="711.1297"
     y="117.84786"
     id="text5104"><tspan
       sodipodi:role="line"
       id="tspan5102"
       x="711.1297"
       y="117.84786">Released</tspan></text>
  <text
     xml:space="preserve"
     style="font-style:normal;font-variant:normal;font-weight:normal;font-stretch:normal;font-size:16px;line-height:1.25;font-family:Stencil;-inkscape-font-specification:Stencil;letter-spacing:0px;word-spacing:0px;fill:#000000;fill-opacity:1;stroke:none"
     x="708.33917"
     y="236.8624"
     id="text5104-9"><tspan
       sodipodi:role="line"
       id="tspan5102-8"
       x="708.33917"
       y="236.8624">Release</tspan><tspan
       sodipodi:role="line"
       x="708.33917"
       y="256.8624"
       id="tspan568">Candidate</tspan></text>
  <text
     xml:space="preserve"
     style="font-style:normal;font-variant:normal;font-weight:normal;font-stretch:normal;font-size:16px;line-height:1.25;font-family:Stencil;-inkscape-font-specification:Stencil;letter-spacing:0px;word-spacing:0px;fill:#000000;fill-opacity:1;stroke:none"
     x="708.00543"
     y="466.66196"
     id="text5104-2"><tspan
       sodipodi:role="line"
       id="tspan5102-5"
       x="708.00543"
       y="466.66196">Continuos</tspan><tspan
       sodipodi:role="line"
       x="708.00543"
       y="486.66196"
       id="tspan570">Integration</tspan></text>
  <text
     xml:space="preserve"
     style="font-style:normal;font-weight:normal;font-size:16px;line-height:1.25;font-family:sans-serif;letter-spacing:0px;word-spacing:0px;fill:#000000;fill-opacity:1;stroke:none"
     x="454.67352"
     y="284.19183"
     id="text5134"><tspan
       sodipodi:role="line"
       id="tspan5132"
       x="454.67352"
       y="298.78912" /></text>
</svg>
